<?xml version="1.0" encoding="utf-8"?>
<!-- Generator: Adobe Illustrator 22.1.0, SVG Export Plug-In . SVG Version: 6.00 Build 0)  -->
<svg version="1.1" id="Capa_1" xmlns="http://www.w3.org/2000/svg" xmlns:xlink="http://www.w3.org/1999/xlink" x="0px" y="0px"
	 viewBox="0 0 512 512" style="enable-background:new 0 0 512 512;" xml:space="preserve">
<g>
	<g>
		<path d="M261.3,242h-10.5c-4.8,0-8.8,3.9-8.8,8.8v10.5c0,4.8,3.9,8.8,8.8,8.8h10.5c4.8,0,8.8-3.9,8.8-8.8v-10.5
			C270,245.9,266.1,242,261.3,242z M267.4,261.3c0,3.4-2.7,6.1-6.1,6.1h-10.5c-3.4,0-6.1-2.7-6.1-6.1v-10.5c0-3.4,2.7-6.1,6.1-6.1
			h10.5c3.4,0,6.1,2.7,6.1,6.1V261.3z"/>
	</g>
</g>
<g>
	<g>
		<path d="M256,249c-3.9,0-7,3.1-7,7s3.1,7,7,7s7-3.1,7-7S259.9,249,256,249z M256,260.4c-2.4,0-4.4-2-4.4-4.4c0-2.4,2-4.4,4.4-4.4
			s4.4,2,4.4,4.4C260.4,258.4,258.4,260.4,256,260.4z"/>
	</g>
</g>
<g>
	<g>
		<circle cx="263.5" cy="248.5" r="0.9"/>
	</g>
</g>
</svg>
