<?xml version="1.0" encoding="utf-8"?>
<!-- Generator: Adobe Illustrator 22.1.0, SVG Export Plug-In . SVG Version: 6.00 Build 0)  -->
<svg version="1.1" id="Layer_1" xmlns="http://www.w3.org/2000/svg" xmlns:xlink="http://www.w3.org/1999/xlink" x="0px" y="0px"
	 viewBox="0 0 512 512" style="enable-background:new 0 0 512 512;" xml:space="preserve">
<g>
	<path d="M270.4,259.1c1.3,1.3,2.7,2.6,3.9,4c0.5,0.6,1,1.3,1.4,2.1c0.5,1.1,0.1,2.2-0.9,2.3l-5.8,0c-1.5,0.1-2.7-0.5-3.7-1.5
		c-0.8-0.8-1.6-1.7-2.3-2.6c-0.3-0.4-0.7-0.7-1-0.9c-0.8-0.5-1.5-0.4-1.9,0.5c-0.5,0.9-0.6,1.8-0.6,2.8c-0.1,1.4-0.5,1.8-1.9,1.8
		c-2.9,0.1-5.7-0.3-8.3-1.8c-2.3-1.3-4.1-3.2-5.6-5.3c-3-4.1-5.3-8.7-7.4-13.4c-0.5-1.1-0.1-1.6,1-1.6c1.9,0,3.8,0,5.7,0
		c0.8,0,1.3,0.5,1.6,1.2c1,2.6,2.3,5,3.9,7.3c0.4,0.6,0.8,1.2,1.5,1.6c0.7,0.5,1.2,0.3,1.5-0.5c0.2-0.5,0.3-1,0.3-1.5
		c0.2-1.8,0.2-3.6-0.1-5.4c-0.2-1.1-0.8-1.8-1.9-2c-0.6-0.1-0.5-0.3-0.2-0.6c0.5-0.6,0.9-0.9,1.8-0.9h6.6c1,0.2,1.3,0.7,1.4,1.7
		l0,7.4c0,0.4,0.2,1.6,0.9,1.9c0.6,0.2,1-0.3,1.3-0.7c1.6-1.7,2.7-3.7,3.7-5.8c0.4-0.9,0.8-1.9,1.2-2.8c0.3-0.7,0.7-1.1,1.5-1l6.3,0
		c0.2,0,0.4,0,0.6,0c1.1,0.2,1.4,0.7,1,1.7c-0.5,1.7-1.5,3-2.5,4.4c-1.1,1.5-2.2,2.9-3.2,4.4C269.2,257.3,269.2,257.9,270.4,259.1
		L270.4,259.1z"/>
</g>
</svg>
