<?xml version="1.0" encoding="utf-8"?>
<!-- Generator: Adobe Illustrator 22.1.0, SVG Export Plug-In . SVG Version: 6.00 Build 0)  -->
<svg version="1.1" id="Capa_1" xmlns="http://www.w3.org/2000/svg" xmlns:xlink="http://www.w3.org/1999/xlink" x="0px" y="0px"
	 viewBox="0 0 90.7 90.7" style="enable-background:new 0 0 90.7 90.7;" xml:space="preserve">
<g>
	<g>
		<path d="M58.4,45.5c-0.3-1.5-1.5-2.6-2.9-2.7c-3.3-0.4-6.7-0.4-10.1-0.4c-3.4,0-6.8,0-10.1,0.4c-1.4,0.2-2.6,1.3-2.9,2.7
			c-0.5,2.1-0.5,4.4-0.5,6.6s0,4.5,0.5,6.6c0.3,1.5,1.5,2.6,2.9,2.7c3.3,0.4,6.7,0.4,10.1,0.4c3.4,0,6.8,0,10.1-0.4
			c1.4-0.2,2.6-1.3,2.9-2.7c0.5-2.1,0.5-4.4,0.5-6.6C58.8,50,58.8,47.7,58.4,45.5z M39.5,47.2h-2v10.7h-1.8V47.2h-1.9v-1.8h5.7V47.2
			z M44.5,57.9h-1.6v-1C42.2,57.6,41.6,58,41,58c-0.5,0-0.9-0.2-1.1-0.7c-0.1-0.3-0.1-0.7-0.1-1.4v-7.3h1.6v6.8c0,0.4,0,0.6,0,0.7
			c0,0.3,0.2,0.4,0.4,0.4c0.3,0,0.7-0.3,1-0.8v-7.1h1.6L44.5,57.9L44.5,57.9z M50.7,55.1c0,0.9-0.1,1.5-0.2,1.9
			c-0.2,0.7-0.7,1-1.3,1c-0.6,0-1.1-0.3-1.7-1v0.9h-1.6V45.4h1.6v4.1c0.5-0.7,1.1-1,1.7-1c0.6,0,1.1,0.4,1.3,1
			c0.1,0.4,0.2,1,0.2,1.9V55.1z M56.8,53.6h-3.3v1.6c0,0.9,0.3,1.3,0.8,1.3c0.4,0,0.6-0.2,0.7-0.7c0-0.1,0-0.5,0-1.1h1.7v0.2
			c0,0.5,0,0.9,0,1.1c-0.1,0.4-0.2,0.7-0.4,1c-0.5,0.7-1.1,1-2,1c-0.9,0-1.5-0.3-2-1c-0.3-0.5-0.5-1.2-0.5-2.2v-3.3
			c0-1,0.2-1.7,0.5-2.2c0.5-0.6,1.1-1,2-1c0.8,0,1.5,0.3,1.9,1c0.3,0.5,0.5,1.2,0.5,2.2L56.8,53.6L56.8,53.6z"/>
		<path d="M54.4,50c-0.5,0-0.8,0.4-0.8,1.3v0.9h1.6v-0.9C55.2,50.4,54.9,50,54.4,50z"/>
		<path d="M48.3,50c-0.3,0-0.5,0.1-0.8,0.4v5.7c0.3,0.3,0.5,0.4,0.8,0.4c0.5,0,0.7-0.4,0.7-1.3v-4C49,50.4,48.8,50,48.3,50z"/>
		<path d="M49.2,41.6c0.6,0,1.2-0.4,1.9-1.2v1h1.6V32h-1.6v7.2c-0.4,0.5-0.7,0.8-1,0.8c-0.2,0-0.4-0.1-0.4-0.4c0-0.1,0-0.3,0-0.7V32
			H48v7.4c0,0.7,0.1,1.1,0.1,1.4C48.3,41.3,48.7,41.6,49.2,41.6z"/>
		<path d="M37.8,36.3v5.1h1.8v-5.1l2.2-7.5h-1.8l-1.2,4.9l-1.3-4.9h-1.9c0.4,1.2,0.8,2.3,1.2,3.5C37.2,34.1,37.6,35.4,37.8,36.3z"/>
		<path d="M44.2,41.6c0.8,0,1.5-0.3,1.9-1c0.3-0.5,0.5-1.2,0.5-2.2v-3.3c0-1-0.2-1.7-0.5-2.2c-0.5-0.6-1.1-1-1.9-1
			c-0.8,0-1.5,0.3-1.9,1c-0.4,0.5-0.5,1.2-0.5,2.2v3.3c0,1,0.2,1.7,0.5,2.2C42.8,41.2,43.4,41.6,44.2,41.6z M43.5,34.8
			c0-0.9,0.3-1.3,0.8-1.3c0.5,0,0.8,0.4,0.8,1.3v3.9c0,0.9-0.3,1.3-0.8,1.3c-0.5,0-0.8-0.4-0.8-1.3V34.8z"/>
	</g>
</g>
</svg>
