<?xml version="1.0" encoding="utf-8"?>
<!-- Generator: Adobe Illustrator 22.1.0, SVG Export Plug-In . SVG Version: 6.00 Build 0)  -->
<svg version="1.1" id="Capa_1" xmlns="http://www.w3.org/2000/svg" xmlns:xlink="http://www.w3.org/1999/xlink" x="0px" y="0px"
	 viewBox="0 0 512.5 512.5" style="enable-background:new 0 0 512.5 512.5;" xml:space="preserve">
<style type="text/css">
	.st0{fill:#FF9800;}
</style>
<g>
	<path class="st0" d="M256.2,257.6c4.5,0,8.2-4,8.2-8.9c0-4.9-3.7-8.9-8.2-8.9c-4.5,0-8.2,4-8.2,8.9
		C248,253.6,251.7,257.6,256.2,257.6z M256.2,243.9c2.4,0,4.4,2.2,4.4,4.8c0,2.7-2,4.8-4.4,4.8c-2.4,0-4.4-2.2-4.4-4.8
		C251.8,246,253.8,243.9,256.2,243.9z"/>
	<path class="st0" d="M264.3,261.8c0.9-0.6,1.4-1.7,1.4-2.9c0-1-0.5-1.8-1.3-2.3c-0.8-0.4-1.8-0.3-2.5,0.3c-3.4,2.7-8,2.7-11.4,0
		c-0.7-0.6-1.7-0.7-2.5-0.3c-0.8,0.4-1.3,1.3-1.3,2.3c0,1.2,0.5,2.2,1.4,2.9c1.1,0.8,2.4,1.5,3.7,1.9c0.2,0.1,0.5,0.1,0.7,0.2
		l-3.8,4.1c-1,1.1-1,2.8-0.1,3.9c1,1.1,2.6,1.1,3.6,0.1c0,0,0,0,0.1-0.1l3.9-4.4l3.9,4.4c1,1.1,2.6,1.1,3.6,0.1c1-1.1,1-2.8,0.1-3.9
		c0,0,0,0-0.1-0.1l-3.8-4.1c0.2-0.1,0.5-0.1,0.7-0.2C261.9,263.3,263.2,262.7,264.3,261.8z"/>
</g>
</svg>
