<?xml version="1.0" encoding="utf-8"?>
<!-- Generator: Adobe Illustrator 22.1.0, SVG Export Plug-In . SVG Version: 6.00 Build 0)  -->
<svg version="1.1" id="Capa_1" xmlns="http://www.w3.org/2000/svg" xmlns:xlink="http://www.w3.org/1999/xlink" x="0px" y="0px"
	 viewBox="0 0 512 512" style="enable-background:new 0 0 512 512;" xml:space="preserve">
<style type="text/css">
	.st0{fill:#D80027;}
</style>
<g>
	<g>
		<path class="st0" d="M269,256.2c-0.3-1.5-1.5-2.6-2.9-2.7c-3.3-0.4-6.7-0.4-10.1-0.4c-3.4,0-6.8,0-10.1,0.4
			c-1.4,0.2-2.6,1.3-2.9,2.7c-0.5,2.1-0.5,4.4-0.5,6.6s0,4.5,0.5,6.6c0.3,1.5,1.5,2.6,2.9,2.7c3.3,0.4,6.7,0.4,10.1,0.4
			c3.4,0,6.8,0,10.1-0.4c1.4-0.2,2.6-1.3,2.9-2.7c0.5-2.1,0.5-4.4,0.5-6.6C269.5,260.6,269.5,258.3,269,256.2z M250.2,257.8h-2v10.7
			h-1.8v-10.7h-1.9v-1.8h5.7V257.8z M255.1,268.6h-1.6v-1c-0.6,0.8-1.3,1.1-1.9,1.1c-0.5,0-0.9-0.2-1.1-0.7
			c-0.1-0.3-0.1-0.7-0.1-1.4v-7.3h1.6v6.8c0,0.4,0,0.6,0,0.7c0,0.3,0.2,0.4,0.4,0.4c0.3,0,0.7-0.3,1-0.8v-7.1h1.6L255.1,268.6
			L255.1,268.6z M261.3,265.8c0,0.9-0.1,1.5-0.2,1.9c-0.2,0.7-0.7,1-1.3,1c-0.6,0-1.1-0.3-1.7-1v0.9h-1.6v-12.5h1.6v4.1
			c0.5-0.7,1.1-1,1.7-1c0.6,0,1.1,0.4,1.3,1c0.1,0.4,0.2,1,0.2,1.9V265.8z M267.5,264.2h-3.3v1.6c0,0.9,0.3,1.3,0.8,1.3
			c0.4,0,0.6-0.2,0.7-0.7c0-0.1,0-0.5,0-1.1h1.7v0.2c0,0.5,0,0.9,0,1.1c-0.1,0.4-0.2,0.7-0.4,1c-0.5,0.7-1.1,1-2,1
			c-0.9,0-1.5-0.3-2-1c-0.3-0.5-0.5-1.2-0.5-2.2v-3.3c0-1,0.2-1.7,0.5-2.2c0.5-0.6,1.1-1,2-1c0.8,0,1.5,0.3,1.9,1
			c0.3,0.5,0.5,1.2,0.5,2.2L267.5,264.2L267.5,264.2z"/>
		<path class="st0" d="M265,260.7c-0.5,0-0.8,0.4-0.8,1.3v0.9h1.6V262C265.9,261.1,265.6,260.7,265,260.7z"/>
		<path class="st0" d="M259,260.7c-0.3,0-0.5,0.1-0.8,0.4v5.7c0.3,0.3,0.5,0.4,0.8,0.4c0.5,0,0.7-0.4,0.7-1.3v-4
			C259.7,261.1,259.5,260.7,259,260.7z"/>
		<path class="st0" d="M259.9,252.2c0.6,0,1.2-0.4,1.9-1.2v1h1.6v-9.4h-1.6v7.2c-0.4,0.5-0.7,0.8-1,0.8c-0.2,0-0.4-0.1-0.4-0.4
			c0-0.1,0-0.3,0-0.7v-6.9h-1.6v7.4c0,0.7,0.1,1.1,0.1,1.4C259,252,259.4,252.2,259.9,252.2z"/>
		<path class="st0" d="M248.4,247v5.1h1.8V247l2.2-7.5h-1.8l-1.2,4.9l-1.3-4.9h-1.9c0.4,1.2,0.8,2.3,1.2,3.5
			C247.9,244.8,248.3,246.1,248.4,247z"/>
		<path class="st0" d="M254.9,252.2c0.8,0,1.5-0.3,1.9-1c0.3-0.5,0.5-1.2,0.5-2.2v-3.3c0-1-0.2-1.7-0.5-2.2c-0.5-0.6-1.1-1-1.9-1
			c-0.8,0-1.5,0.3-1.9,1c-0.4,0.5-0.5,1.2-0.5,2.2v3.3c0,1,0.2,1.7,0.5,2.2C253.4,251.9,254.1,252.2,254.9,252.2z M254.1,245.4
			c0-0.9,0.3-1.3,0.8-1.3c0.5,0,0.8,0.4,0.8,1.3v3.9c0,0.9-0.3,1.3-0.8,1.3c-0.5,0-0.8-0.4-0.8-1.3V245.4z"/>
	</g>
</g>
</svg>
